<?xml version="1.0" encoding="UTF-8" standalone="no"?>
<svg width="92px" height="69px" viewBox="0 0 92 69" version="1.1" xmlns="http://www.w3.org/2000/svg" xmlns:xlink="http://www.w3.org/1999/xlink" xmlns:sketch="http://www.bohemiancoding.com/sketch/ns">
    <title>Slice 1</title>
    <description>Created with Sketch (http://www.bohemiancoding.com/sketch)</description>
    <defs></defs>
    <g id="Page-1" stroke="none" stroke-width="1" fill="none" fill-rule="evenodd" sketch:type="MSPage">
        <g id="noun_226871_cc" sketch:type="MSLayerGroup" transform="translate(0.000000, 1.000000)" fill="#0071BC">
            <path d="M60.6,9.8 L60.6,-0.5 L31.1,-0.5 L31.1,9.8 L0.4,9.8 L0.4,17.9 C10.4,22.6 26.3,26 45.8,26 C65.3,26 81.2,22.6 91.2,17.9 L91.2,9.8 L60.6,9.8 L60.6,9.8 Z M35.1,9.8 L35.1,3.5 L56.6,3.5 L56.6,9.8 L35.1,9.8 L35.1,9.8 Z" id="Shape" sketch:type="MSShapeGroup"></path>
            <g id="Group" transform="translate(0.000000, 22.000000)" sketch:type="MSShapeGroup">
                <path d="M39.1,19.2 C36.9,21.4 36.9,25.1 39.1,27.3 C41.3,29.5 45,29.5 47.2,27.3 C49.4,25.1 49.4,21.4 47.2,19.2 C45,17 41.3,17 39.1,19.2 L39.1,19.2 Z" id="Shape"></path>
                <path d="M45.8,8 C27.6,8 11.5,5 0.4,0.2 L0.4,45.8 L91.3,45.8 L91.3,0.2 C80.2,5 64,8 45.8,8 L45.8,8 Z M54.8,37.3 L47.9,30.4 C44.6,32.6 40,32.3 37.1,29.4 C33.8,26.1 33.8,20.6 37.1,17.3 C40.4,14 45.9,14 49.2,17.3 C52.1,20.2 52.5,24.8 50.2,28.1 L57.1,35 L54.8,37.3 L54.8,37.3 Z" id="Shape"></path>
            </g>
        </g>
    </g>
</svg>