<?xml version="1.0" encoding="UTF-8" standalone="no"?>
<svg width="291px" height="44px" viewBox="0 0 291 44" version="1.1" xmlns="http://www.w3.org/2000/svg" xmlns:xlink="http://www.w3.org/1999/xlink" xmlns:sketch="http://www.bohemiancoding.com/sketch/ns">
    <title>logo</title>
    <description>Created with Sketch (http://www.bohemiancoding.com/sketch)</description>
    <defs></defs>
    <g id="Page-1" stroke="none" stroke-width="1" fill="none" fill-rule="evenodd" sketch:type="MSPage">
        <path d="M16.376,6.928 C15.9919981,6.7679992 15.5920021,6.6480004 15.176,6.568 C14.7599979,6.4879996 14.3600019,6.448 13.976,6.448 C13.2079962,6.448 12.6000022,6.66399784 12.152,7.096 C11.7039978,7.52800216 11.48,8.3039944 11.48,9.424 L11.48,10 L15.512,10 L15.512,16.432 L11.48,16.432 L11.48,34 L3.224,34 L3.224,16.432 L0.056,16.432 L0.056,10.288 L3.224,10.048 L3.224,9.712 C3.224,8.4319936 3.3839984,7.20800584 3.704,6.04 C4.0240016,4.87199416 4.55999624,3.84000448 5.312,2.944 C6.06400376,2.04799552 7.039994,1.33600264 8.24,0.808 C9.440006,0.27999736 10.935991,0.016 12.728,0.016 C13.8480056,0.016 14.8399957,0.11199904 15.704,0.304 C16.5680043,0.49600096 17.2719973,0.68799904 17.816,0.88 L16.376,6.928 Z M15.336,22 C15.336,20.0479902 15.6639967,18.2960078 16.32,16.744 C16.9760033,15.1919922 17.8399946,13.8720054 18.912,12.784 C19.9840054,11.6959946 21.2079931,10.8640029 22.584,10.288 C23.9600069,9.71199712 25.3839926,9.424 26.856,9.424 C28.6160088,9.424 30.1519934,9.72799696 31.464,10.336 C32.7760066,10.944003 33.8639957,11.7759947 34.728,12.832 C35.5920043,13.8880053 36.2399978,15.119993 36.672,16.528 C37.1040022,17.936007 37.32,19.439992 37.32,21.04 C37.32,21.7760037 37.2800004,22.4319971 37.2,23.008 C37.1199996,23.5840029 37.0480003,24.0159986 36.984,24.304 L23.304,24.304 C23.6880019,25.8400077 24.375995,26.8959971 25.368,27.472 C26.360005,28.0480029 27.5279933,28.336 28.872,28.336 C29.7040042,28.336 30.5119961,28.2160012 31.296,27.976 C32.0800039,27.7359988 32.9039957,27.3760024 33.768,26.896 L36.456,31.792 C35.1439934,32.7200046 33.6960079,33.4159977 32.112,33.88 C30.5279921,34.3440023 29.0640067,34.576 27.72,34.576 C25.9599912,34.576 24.3280075,34.2960028 22.824,33.736 C21.3199925,33.1759972 20.0160055,32.3600054 18.912,31.288 C17.8079945,30.2159946 16.9360032,28.8960078 16.296,27.328 C15.6559968,25.7599922 15.336,23.9840099 15.336,22 Z M30.312,19.312 C30.312,18.2879949 30.0800023,17.4240035 29.616,16.72 C29.1519977,16.0159965 28.2960062,15.664 27.048,15.664 C26.1199954,15.664 25.3120034,15.9359973 24.624,16.48 C23.9359966,17.0240027 23.4640013,17.9679933 23.208,19.312 L30.312,19.312 Z M38.776,22 C38.776,20.0479902 39.0559972,18.2880078 39.616,16.72 C40.1760028,15.1519922 40.9119954,13.8320054 41.824,12.76 C42.7360046,11.6879946 43.7839941,10.8640029 44.968,10.288 C46.1520059,9.71199712 47.3519939,9.424 48.568,9.424 C49.8800066,9.424 50.9519958,9.63999784 51.784,10.072 C52.6160042,10.5040022 53.3999963,11.0879963 54.136,11.824 L53.848,8.368 L53.848,0.592 L62.104,0.592 L62.104,34 L55.384,34 L54.808,31.792 L54.616,31.792 C53.7839958,32.6240042 52.8320054,33.2959974 51.76,33.808 C50.6879946,34.3200026 49.6240053,34.576 48.568,34.576 C47.0639925,34.576 45.712006,34.2880029 44.512,33.712 C43.311994,33.1359971 42.2880042,32.3040054 41.44,31.216 C40.5919958,30.1279946 39.9360023,28.8080078 39.472,27.256 C39.0079977,25.7039922 38.776,23.9520098 38.776,22 Z M47.224,21.904 C47.224,24.0800109 47.5359969,25.6159955 48.16,26.512 C48.7840031,27.4080045 49.6559944,27.856 50.776,27.856 C51.4160032,27.856 51.9759976,27.7360012 52.456,27.496 C52.9360024,27.2559988 53.3999978,26.8000034 53.848,26.128 L53.848,17.296 C53.3679976,16.8479978 52.8400029,16.5440008 52.264,16.384 C51.6879971,16.2239992 51.1280027,16.144 50.584,16.144 C49.7199957,16.144 48.9440034,16.5759957 48.256,17.44 C47.5679966,18.3040043 47.224,19.7919894 47.224,21.904 Z M64.328,37.936 C64.328,36.0479906 65.4479888,34.5120059 67.688,33.328 L67.688,33.136 C67.0479968,32.6879978 66.5200021,32.1440032 66.104,31.504 C65.6879979,30.8639968 65.48,30.0320051 65.48,29.008 C65.48,28.1759958 65.7199976,27.360004 66.2,26.56 C66.6800024,25.759996 67.3359958,25.0720029 68.168,24.496 L68.168,24.304 C67.3039957,23.7279971 66.5440033,22.9120053 65.888,21.856 C65.2319967,20.7999947 64.904,19.568007 64.904,18.16 C64.904,16.6879926 65.1919971,15.4000055 65.768,14.296 C66.3440029,13.1919945 67.1119952,12.2800036 68.072,11.56 C69.0320048,10.8399964 70.1279938,10.3040018 71.36,9.952 C72.5920062,9.59999824 73.8639934,9.424 75.176,9.424 C76.584007,9.424 77.8639942,9.61599808 79.016,10 L87.944,10 L87.944,15.952 L84.488,15.952 C84.5840005,16.2400014 84.6719996,16.6079978 84.752,17.056 C84.8320004,17.5040022 84.872,17.9679976 84.872,18.448 C84.872,19.856007 84.6160026,21.063995 84.104,22.072 C83.5919974,23.080005 82.9040043,23.9039968 82.04,24.544 C81.1759957,25.1840032 80.1520059,25.6559985 78.968,25.96 C77.7839941,26.2640015 76.5200067,26.416 75.176,26.416 C74.375996,26.416 73.480005,26.3040011 72.488,26.08 C72.2319987,26.3040011 72.0720003,26.5039991 72.008,26.68 C71.9439997,26.8560009 71.912,27.1199982 71.912,27.472 C71.912,28.0160027 72.1679974,28.391999 72.68,28.6 C73.1920026,28.808001 74.0559939,28.912 75.272,28.912 L78.872,28.912 C81.880015,28.912 84.2079918,29.3999951 85.856,30.376 C87.5040082,31.3520049 88.328,32.943989 88.328,35.152 C88.328,36.4640066 88.0000033,37.6559946 87.344,38.728 C86.6879967,39.8000054 85.760006,40.7199962 84.56,41.488 C83.359994,42.2560038 81.9040086,42.8479979 80.192,43.264 C78.4799914,43.6800021 76.5520107,43.888 74.408,43.888 C73.0319931,43.888 71.7360061,43.784001 70.52,43.576 C69.3039939,43.367999 68.2400046,43.0240024 67.328,42.544 C66.4159954,42.0639976 65.6880027,41.4480038 65.144,40.696 C64.5999973,39.9439962 64.328,39.0240054 64.328,37.936 Z M71.048,36.592 C71.048,37.3600038 71.4799957,37.9199982 72.344,38.272 C73.2080043,38.6240018 74.343993,38.8 75.752,38.8 C77.0960067,38.8 78.2159955,38.600002 79.112,38.2 C80.0080045,37.799998 80.456,37.2640034 80.456,36.592 C80.456,35.9519968 80.1760028,35.5520008 79.616,35.392 C79.0559972,35.2319992 78.2640051,35.152 77.24,35.152 L75.368,35.152 C74.4079952,35.152 73.6800025,35.1280002 73.184,35.08 C72.6879975,35.0319998 72.2640018,34.9600005 71.912,34.864 C71.6239986,35.1520014 71.4080007,35.4239987 71.264,35.68 C71.1199993,35.9360013 71.048,36.2399982 71.048,36.592 Z M75.176,21.52 C75.9440038,21.52 76.5679976,21.2480027 77.048,20.704 C77.5280024,20.1599973 77.768,19.3120058 77.768,18.16 C77.768,17.0399944 77.5280024,16.2160026 77.048,15.688 C76.5679976,15.1599974 75.9440038,14.896 75.176,14.896 C74.4079962,14.896 73.7840024,15.1599974 73.304,15.688 C72.8239976,16.2160026 72.584,17.0399944 72.584,18.16 C72.584,19.3120058 72.8239976,20.1599973 73.304,20.704 C73.7840024,21.2480027 74.4079962,21.52 75.176,21.52 Z M87.672,22 C87.672,20.0159901 87.9999967,18.2400078 88.656,16.672 C89.3120033,15.1039922 90.1919945,13.7840054 91.296,12.712 C92.4000055,11.6399946 93.6719928,10.8240028 95.112,10.264 C96.5520072,9.7039972 98.0399923,9.424 99.576,9.424 C101.112008,9.424 102.591993,9.7039972 104.016,10.264 C105.440007,10.8240028 106.703994,11.6399946 107.808,12.712 C108.912006,13.7840054 109.799997,15.1039922 110.472,16.672 C111.144003,18.2400078 111.48,20.0159901 111.48,22 C111.48,23.9840099 111.144003,25.7599922 110.472,27.328 C109.799997,28.8960078 108.912006,30.2159946 107.808,31.288 C106.703994,32.3600054 105.440007,33.1759972 104.016,33.736 C102.591993,34.2960028 101.112008,34.576 99.576,34.576 C98.0399923,34.576 96.5520072,34.2960028 95.112,33.736 C93.6719928,33.1759972 92.4000055,32.3600054 91.296,31.288 C90.1919945,30.2159946 89.3120033,28.8960078 88.656,27.328 C87.9999967,25.7599922 87.672,23.9840099 87.672,22 Z M96.12,22 C96.12,23.8240091 96.3839974,25.2719946 96.912,26.344 C97.4400026,27.4160054 98.3279938,27.952 99.576,27.952 C100.824006,27.952 101.711997,27.4160054 102.24,26.344 C102.768003,25.2719946 103.032,23.8240091 103.032,22 C103.032,20.1759909 102.768003,18.7280054 102.24,17.656 C101.711997,16.5839946 100.824006,16.048 99.576,16.048 C98.3279938,16.048 97.4400026,16.5839946 96.912,17.656 C96.3839974,18.7280054 96.12,20.1759909 96.12,22 Z M111.112,10 L119.368,10 L121.96,20.464 C122.536003,22.864012 123.111997,25.359987 123.688,27.952 L123.88,27.952 C124.456003,25.359987 125.031997,22.864012 125.608,20.464 L128.2,10 L136.072,10 L128.488,34 L118.984,34 L111.112,10 Z M134.168,29.584 C134.168,28.175993 134.615996,26.9920048 135.512,26.032 C136.408004,25.0719952 137.559993,24.592 138.968,24.592 C140.376007,24.592 141.527996,25.0719952 142.424,26.032 C143.320004,26.9920048 143.768,28.175993 143.768,29.584 C143.768,30.992007 143.320004,32.1759952 142.424,33.136 C141.527996,34.0960048 140.376007,34.576 138.968,34.576 C137.559993,34.576 136.408004,34.0960048 135.512,33.136 C134.615996,32.1759952 134.168,30.992007 134.168,29.584 Z M146.184,22 C146.184,20.0159901 146.535996,18.2400078 147.24,16.672 C147.944004,15.1039922 148.887994,13.7840054 150.072,12.712 C151.256006,11.6399946 152.623992,10.8240028 154.176,10.264 C155.728008,9.7039972 157.351992,9.424 159.048,9.424 C160.488007,9.424 161.807994,9.6639976 163.008,10.144 C164.208006,10.6240024 165.223996,11.2799958 166.056,12.112 L162.312,17.2 C161.767997,16.7519978 161.280002,16.4480008 160.848,16.288 C160.415998,16.1279992 159.976002,16.048 159.528,16.048 C157.991992,16.048 156.792004,16.5839946 155.928,17.656 C155.063996,18.7280054 154.632,20.1759909 154.632,22 C154.632,23.8240091 155.071996,25.2719946 155.952,26.344 C156.832004,27.4160054 157.927993,27.952 159.24,27.952 C160.008004,27.952 160.703997,27.7920016 161.328,27.472 C161.952003,27.1519984 162.535997,26.8000019 163.08,26.416 L166.344,31.6 C165.127994,32.6560053 163.792007,33.4159977 162.336,33.88 C160.879993,34.3440023 159.528006,34.576 158.28,34.576 C156.583992,34.576 155.000007,34.2960028 153.528,33.736 C152.055993,33.1759972 150.776005,32.3600054 149.688,31.288 C148.599995,30.2159946 147.744003,28.8960078 147.12,27.328 C146.495997,25.7599922 146.184,23.9840099 146.184,22 Z M166.84,27.184 C166.84,24.6879875 167.86399,22.7280071 169.912,21.304 C171.96001,19.8799929 175.287977,18.9280024 179.896,18.448 C179.703999,16.7839917 178.58401,15.952 176.536,15.952 C175.671996,15.952 174.760005,16.1199983 173.8,16.456 C172.839995,16.7920017 171.736006,17.2959966 170.488,17.968 L167.608,12.592 C169.304008,11.5679949 171.015991,10.7840027 172.744,10.24 C174.472009,9.69599728 176.279991,9.424 178.168,9.424 C181.272016,9.424 183.711991,10.3119911 185.488,12.088 C187.264009,13.8640089 188.152,16.7199803 188.152,20.656 L188.152,34 L181.432,34 L180.856,31.696 L180.664,31.696 C179.703995,32.5600043 178.688005,33.2559974 177.616,33.784 C176.543995,34.3120026 175.352007,34.576 174.04,34.576 C172.919994,34.576 171.912004,34.376002 171.016,33.976 C170.119996,33.575998 169.360003,33.0400034 168.736,32.368 C168.111997,31.6959966 167.640002,30.9120045 167.32,30.016 C166.999998,29.1199955 166.84,28.176005 166.84,27.184 Z M174.712,26.512 C174.712,27.6640058 175.447993,28.24 176.92,28.24 C177.592003,28.24 178.143998,28.0880015 178.576,27.784 C179.008002,27.4799985 179.447998,27.0880024 179.896,26.608 L179.896,23.344 C177.91199,23.6320014 176.552004,24.0639971 175.816,24.64 C175.079996,25.2160029 174.712,25.8399966 174.712,26.512 Z M191.624,10 L198.344,10 L198.92,14.128 L199.112,14.128 C200.008004,12.4959918 201.071994,11.3040038 202.304,10.552 C203.536006,9.79999624 204.743994,9.424 205.928,9.424 C206.664004,9.424 207.255998,9.4639996 207.704,9.544 C208.152002,9.6240004 208.551998,9.7439992 208.904,9.904 L207.56,17.008 C207.111998,16.9119995 206.688002,16.8240004 206.288,16.744 C205.887998,16.6639996 205.416003,16.624 204.872,16.624 C204.007996,16.624 203.104005,16.919997 202.16,17.512 C201.215995,18.104003 200.456003,19.1519925 199.88,20.656 L199.88,34 L191.624,34 L191.624,10 Z M207.96,22 C207.96,20.0479902 208.287997,18.2960078 208.944,16.744 C209.600003,15.1919922 210.463995,13.8720054 211.536,12.784 C212.608005,11.6959946 213.831993,10.8640029 215.208,10.288 C216.584007,9.71199712 218.007993,9.424 219.48,9.424 C221.240009,9.424 222.775993,9.72799696 224.088,10.336 C225.400007,10.944003 226.487996,11.7759947 227.352,12.832 C228.216004,13.8880053 228.863998,15.119993 229.296,16.528 C229.728002,17.936007 229.944,19.439992 229.944,21.04 C229.944,21.7760037 229.904,22.4319971 229.824,23.008 C229.744,23.5840029 229.672,24.0159986 229.608,24.304 L215.928,24.304 C216.312002,25.8400077 216.999995,26.8959971 217.992,27.472 C218.984005,28.0480029 220.151993,28.336 221.496,28.336 C222.328004,28.336 223.135996,28.2160012 223.92,27.976 C224.704004,27.7359988 225.527996,27.3760024 226.392,26.896 L229.08,31.792 C227.767993,32.7200046 226.320008,33.4159977 224.736,33.88 C223.151992,34.3440023 221.688007,34.576 220.344,34.576 C218.583991,34.576 216.952008,34.2960028 215.448,33.736 C213.943992,33.1759972 212.640006,32.3600054 211.536,31.288 C210.431994,30.2159946 209.560003,28.8960078 208.92,27.328 C208.279997,25.7599922 207.96,23.9840099 207.96,22 Z M222.936,19.312 C222.936,18.2879949 222.704002,17.4240035 222.24,16.72 C221.775998,16.0159965 220.920006,15.664 219.672,15.664 C218.743995,15.664 217.936003,15.9359973 217.248,16.48 C216.559997,17.0240027 216.088001,17.9679933 215.832,19.312 L222.936,19.312 Z M231.208,22 C231.208,20.0479902 231.535997,18.2960078 232.192,16.744 C232.848003,15.1919922 233.711995,13.8720054 234.784,12.784 C235.856005,11.6959946 237.079993,10.8640029 238.456,10.288 C239.832007,9.71199712 241.255993,9.424 242.728,9.424 C244.488009,9.424 246.023993,9.72799696 247.336,10.336 C248.648007,10.944003 249.735996,11.7759947 250.6,12.832 C251.464004,13.8880053 252.111998,15.119993 252.544,16.528 C252.976002,17.936007 253.192,19.439992 253.192,21.04 C253.192,21.7760037 253.152,22.4319971 253.072,23.008 C252.992,23.5840029 252.92,24.0159986 252.856,24.304 L239.176,24.304 C239.560002,25.8400077 240.247995,26.8959971 241.24,27.472 C242.232005,28.0480029 243.399993,28.336 244.744,28.336 C245.576004,28.336 246.383996,28.2160012 247.168,27.976 C247.952004,27.7359988 248.775996,27.3760024 249.64,26.896 L252.328,31.792 C251.015993,32.7200046 249.568008,33.4159977 247.984,33.88 C246.399992,34.3440023 244.936007,34.576 243.592,34.576 C241.831991,34.576 240.200008,34.2960028 238.696,33.736 C237.191992,33.1759972 235.888006,32.3600054 234.784,31.288 C233.679994,30.2159946 232.808003,28.8960078 232.168,27.328 C231.527997,25.7599922 231.208,23.9840099 231.208,22 Z M246.184,19.312 C246.184,18.2879949 245.952002,17.4240035 245.488,16.72 C245.023998,16.0159965 244.168006,15.664 242.92,15.664 C241.991995,15.664 241.184003,15.9359973 240.496,16.48 C239.807997,17.0240027 239.336001,17.9679933 239.08,19.312 L246.184,19.312 Z M255.704,10 L262.424,10 L263,14.128 L263.192,14.128 C264.088004,12.4959918 265.151994,11.3040038 266.384,10.552 C267.616006,9.79999624 268.823994,9.424 270.008,9.424 C270.744004,9.424 271.335998,9.4639996 271.784,9.544 C272.232002,9.6240004 272.631998,9.7439992 272.984,9.904 L271.64,17.008 C271.191998,16.9119995 270.768002,16.8240004 270.368,16.744 C269.967998,16.6639996 269.496003,16.624 268.952,16.624 C268.087996,16.624 267.184005,16.919997 266.24,17.512 C265.295995,18.104003 264.536003,19.1519925 263.96,20.656 L263.96,34 L255.704,34 L255.704,10 Z M275.016,26.128 C277.192011,27.728008 279.143991,28.528 280.872,28.528 C281.736004,28.528 282.351998,28.4080012 282.72,28.168 C283.088002,27.9279988 283.272,27.5680024 283.272,27.088 C283.272,26.7679984 283.144001,26.4880012 282.888,26.248 C282.631999,26.0079988 282.288002,25.784001 281.856,25.576 C281.423998,25.367999 280.936003,25.168001 280.392,24.976 C279.847997,24.783999 279.272003,24.5600013 278.664,24.304 C277.959996,24.0159986 277.248004,23.672002 276.528,23.272 C275.807996,22.871998 275.160003,22.3840029 274.584,21.808 C274.007997,21.2319971 273.536002,20.5680038 273.168,19.816 C272.799998,19.0639962 272.616,18.192005 272.616,17.2 C272.616,16.0159941 272.847998,14.9440048 273.312,13.984 C273.776002,13.0239952 274.423996,12.2080034 275.256,11.536 C276.088004,10.8639966 277.087994,10.3440018 278.256,9.976 C279.424006,9.60799816 280.711993,9.424 282.12,9.424 C284.10401,9.424 285.807993,9.75199672 287.232,10.408 C288.656007,11.0640033 289.895995,11.791996 290.952,12.592 L287.304,17.488 C286.439996,16.8479968 285.592004,16.3520018 284.76,16 C283.927996,15.6479982 283.144004,15.472 282.408,15.472 C280.999993,15.472 280.296,15.9199955 280.296,16.816 C280.296,17.1360016 280.415999,17.4079989 280.656,17.632 C280.896001,17.8560011 281.223998,18.063999 281.64,18.256 C282.056002,18.448001 282.535997,18.6319991 283.08,18.808 C283.624003,18.9840009 284.199997,19.1839989 284.808,19.408 C285.512004,19.6640013 286.231996,19.9839981 286.968,20.368 C287.704004,20.7520019 288.367997,21.2239972 288.96,21.784 C289.552003,22.3440028 290.031998,23.0159961 290.4,23.8 C290.768002,24.5840039 290.952,25.5199946 290.952,26.608 C290.952,27.7280056 290.728002,28.7759951 290.28,29.752 C289.831998,30.7280049 289.176004,31.5759964 288.312,32.296 C287.447996,33.0160036 286.376006,33.575998 285.096,33.976 C283.815994,34.376002 282.344008,34.576 280.68,34.576 C279.143992,34.576 277.520009,34.272003 275.808,33.664 C274.095991,33.055997 272.616006,32.2400051 271.368,31.216 L275.016,26.128 Z" id="fedgov.careers" fill="#E31C3D" sketch:type="MSShapeGroup"></path>
    </g>
</svg>