<?xml version="1.0" encoding="UTF-8" standalone="no"?>
<svg width="91px" height="91px" viewBox="0 0 91 91" version="1.1" xmlns="http://www.w3.org/2000/svg" xmlns:xlink="http://www.w3.org/1999/xlink" xmlns:sketch="http://www.bohemiancoding.com/sketch/ns">
    <title>Slice 1</title>
    <description>Created with Sketch (http://www.bohemiancoding.com/sketch)</description>
    <defs></defs>
    <g id="Page-1" stroke="none" stroke-width="1" fill="none" fill-rule="evenodd" sketch:type="MSPage">
        <g id="noun_253079_cc" sketch:type="MSLayerGroup" fill="#FFFFFF">
            <path d="M3.4263763,62.3649292 L86.5700683,62.3649292 C87.4921035,60.1031189 88.248207,57.8413086 88.8197326,55.5795021 L1.1602879,55.5795021 C1.7282252,57.8413086 2.4894319,60.1031189 3.4263763,62.3649292 L3.4263763,62.3649292 Z" id="Shape" sketch:type="MSShapeGroup"></path>
            <path d="M89.9217834,41.4431992 L45.3869019,41.4431992 L45.3869019,34.6577721 L88.8422318,34.6577721 C88.2767792,32.3959618 87.5193024,30.1341553 86.5849762,27.872345 L45.3869019,27.872345 L45.3869019,21.0869198 L82.9564743,21.0869198 C81.3722153,18.2596588 79.5488586,15.9978504 77.5072327,13.736042 L45.3869019,13.736042 L45.3869019,6.9506149 L69.0145493,6.9506149 C64.680336,4.1233549 59.8037262,2.185307 54.5066147,1.0413918 C51.4307251,0.3770956 48.3604965,0.0446372 45.3333397,0.0186839 C24.4219627,-0.1596417 5.5497208,14.4343662 0.9619102,35.6777191 C0.0161309,40.0591774 -0.2547231,44.2704582 0.0736975,48.794075 L45.3333411,48.794075 L89.9118438,48.794075 C90.0964127,45.9668159 90.095726,43.7050056 89.9217834,41.4431992 L89.9217834,41.4431992 Z M34.8400307,8.6469717 L35.4397202,6.5425396 L36.0374756,8.6469717 L38.2417183,8.6469717 L36.388401,9.9594803 L37.1046028,12.0896588 L35.4441376,10.7637244 L33.7800865,12.1425324 L34.5000152,9.9506455 L32.6353759,8.6469718 L34.8400307,8.6469718 L34.8400307,8.6469717 Z M37.1046028,22.0784626 L35.4441376,20.717844 L33.7800865,22.0784626 L34.5000152,20.0067139 L32.6353759,18.8251114 L34.8400306,18.8251114 L35.4397201,16.7208176 L36.0374755,18.8251114 L38.2417182,18.8251114 L36.3884009,20.0068512 L37.1046028,22.0784626 L37.1046028,22.0784626 Z M37.1046028,31.9962387 L35.4441376,30.6362076 L33.7800865,31.9962387 L34.5000152,30.0546722 L32.6353759,29.0032501 L34.8400306,29.0032501 L35.4397201,26.8992672 L36.0374755,29.0032501 L38.2417182,29.0032501 L36.3884009,30.0550499 L37.1046028,31.9962387 L37.1046028,31.9962387 Z M32.1227989,36.9409447 L30.4630241,35.5811539 L28.7982826,36.9409447 L29.5182113,34.789505 L27.6532974,33.5268669 L29.8582268,33.5268669 L30.4580536,31.4229889 L31.0556717,33.5268669 L33.2601891,33.5268669 L31.4063187,34.7898178 L32.1227989,36.9409447 L32.1227989,36.9409447 Z M27.1335373,31.9962387 L25.4733505,30.6362076 L23.8086071,31.9962387 L24.5279846,30.0546722 L22.6637592,29.0032501 L24.8688297,29.0032501 L25.4689331,26.8992672 L26.0658607,29.0032501 L28.2703781,29.0032501 L26.4176121,30.0550499 L27.1335373,31.9962387 L27.1335373,31.9962387 Z M22.15201,36.9409447 L20.4914074,35.5811539 L18.8272171,36.9409447 L19.5474224,34.789505 L17.6822319,33.5268669 L19.8874397,33.5268669 L20.4867134,31.4229889 L21.0841942,33.5268669 L23.2891255,33.5268669 L21.4362202,34.7898178 L22.15201,36.9409447 L22.15201,36.9409447 Z M17.1627502,31.9962387 L15.5017337,30.6362076 L13.8375434,31.9962387 L14.5577487,30.0546722 L12.6926955,29.0032501 L14.8973521,29.0032501 L15.4975928,26.8992672 L16.0950717,29.0032501 L18.2994517,29.0032501 L16.4465464,30.0550499 L17.1627502,31.9962387 L17.1627502,31.9962387 Z M32.1227989,27.0228539 L30.4630241,25.6628228 L28.7982826,27.0228539 L29.5182113,25.0240326 L27.6532974,23.9141808 L29.8582268,23.9141808 L30.4580536,21.8103695 L31.0556717,23.9141808 L33.2601891,23.9141808 L31.4063187,25.0244122 L32.1227989,27.0228539 L32.1227989,27.0228539 Z M26.4176121,20.0068512 L27.1335373,22.0729065 L25.4733505,20.7150822 L23.8086071,22.0770817 L24.5279846,20.0060234 L22.6637592,18.8251114 L24.8688297,18.8251114 L25.4689331,16.7208176 L26.0658607,18.8251114 L28.2703781,18.8251114 L26.4176121,20.0068512 L26.4176121,20.0068512 Z M23.2891254,23.9141808 L21.4362201,25.0244122 L22.1520099,27.0534668 L20.4914073,25.678112 L18.827217,27.0305175 L19.5474223,25.0278625 L17.6822318,23.9141807 L19.8874396,23.9141807 L20.4867133,21.8103694 L21.0841941,23.9141807 L23.2891254,23.9141807 L23.2891254,23.9141808 Z M30.4580536,11.6318512 L31.0556717,13.736042 L33.2601891,13.736042 L31.4063187,14.9765911 L32.122799,17.0701179 L30.4630242,15.727272 L28.7982827,17.095932 L29.5182114,14.972002 L27.6532975,13.736042 L29.8582269,13.736042 L30.4580536,11.6318512 L30.4580536,11.6318512 Z M24.8688297,8.6469717 L25.4689331,6.5425396 L26.0658607,8.6469717 L28.2703781,8.6469717 L26.4176121,9.9594803 L27.1335373,12.0896588 L25.4733505,10.7637244 L23.8086071,12.1425324 L24.5279846,9.9506455 L22.6637592,8.6469718 L24.8688297,8.6469718 L24.8688297,8.6469717 Z M19.8874397,13.736042 L20.4867134,11.6318512 L21.0841942,13.736042 L23.2891255,13.736042 L21.4362202,14.9765911 L22.15201,17.070118 L20.4914074,15.7272721 L18.8272171,17.0959321 L19.5474224,14.9720021 L17.6822319,13.7360421 L19.8874397,13.7360421 L19.8874397,13.736042 Z M14.8973522,18.8251114 L15.4975929,16.7208176 L16.0950718,18.8251114 L18.2994518,18.8251114 L16.4465465,20.0068512 L17.1627502,22.0729065 L15.5017337,20.7150822 L13.8375434,22.0770817 L14.5577487,20.0060234 L12.6926955,18.8251114 L14.8973522,18.8251114 L14.8973522,18.8251114 Z M9.9159613,23.9141808 L10.5155115,21.8103695 L11.1134052,23.9141808 L13.3180618,23.9141808 L11.4647426,25.0244122 L12.1808071,27.0534668 L10.5206194,25.678112 L8.8560143,27.0305175 L9.5756684,25.0278625 L7.711443,23.9141807 L9.9159613,23.9141807 L9.9159613,23.9141808 Z M9.9159613,33.5268669 L10.5155115,31.4229889 L11.1134052,33.5268669 L13.3180618,33.5268669 L11.4647426,34.7898178 L12.1808071,36.8950767 L10.5206194,35.5582351 L8.8560143,36.9294853 L9.5756684,34.7837753 L7.711443,33.5268669 L9.9159613,33.5268669 L9.9159613,33.5268669 Z M5.5312223,40.5533981 L3.8663406,41.913742 L4.586133,39.8208694 L2.7213554,38.6159362 L4.9262876,38.6159362 L5.5259761,36.511917 L6.1238698,38.6159362 L8.3281116,38.6159362 L6.4747924,39.8210067 L7.1916856,41.8969344 L5.5312223,40.5533981 L5.5312223,40.5533981 Z M12.1808071,46.8592377 L10.5206194,45.4991722 L8.8560143,46.8592377 L9.5756684,44.8381539 L7.711443,43.7050057 L9.9159613,43.7050057 L10.5155115,41.6008492 L11.1134052,43.7050057 L13.3180618,43.7050057 L11.4647426,44.8384286 L12.1808071,46.8592377 L12.1808071,46.8592377 Z M15.5017338,40.5533981 L13.8375435,41.913742 L14.5577488,39.8208694 L12.6926956,38.6159362 L14.8973522,38.6159362 L15.4975929,36.511917 L16.0950718,38.6159362 L18.2994518,38.6159362 L16.4465465,39.8210067 L17.1627502,41.8969344 L15.5017338,40.5533981 L15.5017338,40.5533981 Z M22.15201,46.8592377 L20.4914074,45.4991722 L18.8272171,46.8592377 L19.5474224,44.8381539 L17.6822319,43.7050057 L19.8874397,43.7050057 L20.4867134,41.6008492 L21.0841942,43.7050057 L23.2891255,43.7050057 L21.4362202,44.8384286 L22.15201,46.8592377 L22.15201,46.8592377 Z M25.4733505,40.5533981 L23.8086071,41.913742 L24.5279846,39.8208694 L22.6637592,38.6159362 L24.8688297,38.6159362 L25.4689331,36.511917 L26.0658607,38.6159362 L28.2703781,38.6159362 L26.4176121,39.8210067 L27.1335373,41.8969344 L25.4733505,40.5533981 L25.4733505,40.5533981 Z M32.1227989,46.8592377 L30.4630241,45.4991722 L28.7982826,46.8592377 L29.5182113,44.8381539 L27.6532974,43.7050057 L29.8582268,43.7050057 L30.4580536,41.6008492 L31.0556717,43.7050057 L33.2601891,43.7050057 L31.4063187,44.8384286 L32.1227989,46.8592377 L32.1227989,46.8592377 Z M35.4441376,40.5533981 L33.7800865,41.913742 L34.5000152,39.8208694 L32.6353759,38.6159362 L34.8400306,38.6159362 L35.4397201,36.511917 L36.0374755,38.6159362 L38.2417182,38.6159362 L36.3884009,39.8210067 L37.1046027,41.8969344 L35.4441376,40.5533981 L35.4441376,40.5533981 Z M42.0942764,46.8592377 L40.4340896,45.4991722 L38.7690696,46.8592377 L39.4892768,44.8381539 L37.6247748,43.7050057 L39.8299826,43.7050057 L40.4293936,41.6008492 L41.0268744,43.7050057 L43.2316702,43.7050057 L41.3786238,44.8384286 L42.0942764,46.8592377 L42.0942764,46.8592377 Z M41.378624,34.7898178 L42.0942765,36.8950767 L40.4340897,35.5582351 L38.7690697,36.9294853 L39.4892769,34.7837753 L37.6247749,33.5268669 L39.8299827,33.5268669 L40.4293937,31.4229889 L41.0268745,33.5268669 L43.2316703,33.5268669 L41.378624,34.7898178 L41.378624,34.7898178 Z M41.378624,25.0244122 L42.0942765,27.0534668 L40.4340897,25.678112 L38.7690697,27.0305175 L39.4892769,25.0278625 L37.6247749,23.9141807 L39.8299827,23.9141807 L40.4293937,21.8103694 L41.0268745,23.9141807 L43.2316703,23.9141807 L41.378624,25.0244122 L41.378624,25.0244122 Z M41.378624,14.9765911 L42.0942765,17.0701179 L40.4340897,15.727272 L38.7690697,17.095932 L39.4892769,14.972002 L37.6247749,13.736042 L39.8299827,13.736042 L40.4293937,11.6318512 L41.0268745,13.736042 L43.2316703,13.736042 L41.378624,14.9765911 L41.378624,14.9765911 Z M41.378624,35.2110834 L42.0942765,37.2283716 L40.4340897,35.8473205 L38.7690697,37.1969652 L39.4892769,35.2163296 L37.6247749,34.1233549 L39.8299827,34.1233549 L40.4293937,32.019475 L41.0268745,34.1233549 L43.2316703,34.1233549 L41.378624,35.2110834 L41.378624,35.2110834 Z" id="Shape" sketch:type="MSShapeGroup"></path>
            <path d="M35.4861069,89.1469116 C47.4384613,91.7284088 59.3057785,89.5066299 68.9100418,83.2866592 L21.0552025,83.2866592 C25.3695374,86.1139221 30.219368,88.0093079 35.4861069,89.1469116 L35.4861069,89.1469116 Z" id="Shape" sketch:type="MSShapeGroup"></path>
            <path d="M12.5299358,76.5012283 L77.4602947,76.5012283 C79.4962597,74.2394256 81.3352184,71.9776153 82.939909,69.1503524 L7.0644035,69.1503524 C8.6530809,71.9776154 10.4823799,74.2394257 12.5299358,76.5012283 L12.5299358,76.5012283 Z" id="Shape" sketch:type="MSShapeGroup"></path>
        </g>
    </g>
</svg>