<?xml version="1.0" encoding="UTF-8" standalone="no"?>
<svg width="223px" height="61px" viewBox="0 0 223 61" version="1.1" xmlns="http://www.w3.org/2000/svg" xmlns:xlink="http://www.w3.org/1999/xlink" xmlns:sketch="http://www.bohemiancoding.com/sketch/ns">
    <title>logo</title>
    <description>Created with Sketch (http://www.bohemiancoding.com/sketch)</description>
    <defs></defs>
    <g id="Page-1" stroke="none" stroke-width="1" fill="none" fill-rule="evenodd" sketch:type="MSPage">
        <path d="M0.92,5.75 L12.1,5.75 L12.1,28.89 C12.1,32.6600189 12.6091616,35.314159 13.6275,36.8525 C14.6458384,38.390841 16.259989,39.16 18.47,39.16 C20.6800111,39.16 22.315828,38.390841 23.3775,36.8525 C24.439172,35.314159 24.97,32.6600189 24.97,28.89 L24.97,5.75 L35.76,5.75 L35.76,27.59 C35.76,34.8267029 34.3516807,40.1674828 31.535,43.6125 C28.7183193,47.0575172 24.3633628,48.78 18.47,48.78 C12.5333037,48.78 8.12418107,47.0575172 5.2425,43.6125 C2.36081893,40.1674828 0.92,34.8267029 0.92,27.59 L0.92,5.75 Z M45.98,35.065 C47.4966743,36.2783394 49.1324912,37.2641629 50.8875,38.0225 C52.6425088,38.7808371 54.2999922,39.16 55.86,39.16 C57.5500084,39.16 58.7741629,38.9000026 59.5325,38.38 C60.2908371,37.8599974 60.67,37.1233381 60.67,36.17 C60.67,35.6499974 60.5400013,35.2166684 60.28,34.87 C60.0199987,34.5233316 59.6408358,34.1983348 59.1425,33.895 C58.6441642,33.5916651 58.0483368,33.2991681 57.355,33.0175 C56.6616632,32.7358319 55.8600045,32.4216684 54.95,32.075 L49.685,29.865 C48.5583277,29.4316645 47.4750052,28.8575036 46.435,28.1425 C45.3949948,27.4274964 44.4850039,26.5825049 43.705,25.6075 C42.9249961,24.6324951 42.3075023,23.516673 41.8525,22.26 C41.3974977,21.003327 41.17,19.6166743 41.17,18.1 C41.17,16.2799909 41.5599961,14.5791746 42.34,12.9975 C43.1200039,11.4158254 44.2033264,10.0291726 45.59,8.8375 C46.9766736,7.64582737 48.634157,6.7033368 50.5625,6.01 C52.490843,5.3166632 54.6033219,4.97 56.9,4.97 C59.3266788,4.97 61.7858209,5.42499545 64.2775,6.335 C66.7691791,7.24500455 68.9899903,8.67499025 70.94,10.625 L65.35,17.645 C63.9199928,16.6483283 62.5441733,15.8900026 61.2225,15.37 C59.9008267,14.8499974 58.4600078,14.59 56.9,14.59 C55.5133264,14.59 54.4300039,14.828331 53.65,15.305 C52.8699961,15.7816691 52.48,16.4966619 52.48,17.45 C52.48,18.4466716 53.0324945,19.2158306 54.1375,19.7575 C55.2425055,20.2991694 56.7699902,20.9383297 58.72,21.675 L63.855,23.69 C66.4983466,24.7300052 68.5349929,26.1816574 69.965,28.045 C71.3950071,29.9083426 72.11,32.3133186 72.11,35.26 C72.11,37.0366755 71.7416703,38.7483251 71.005,40.395 C70.2683296,42.0416749 69.1958404,43.4824938 67.7875,44.7175 C66.3791596,45.9525062 64.6566768,46.9383297 62.62,47.675 C60.5833231,48.4116704 58.2433465,48.78 55.6,48.78 C52.9133199,48.78 50.1508475,48.2925049 47.3125,47.3175 C44.4741525,46.3424951 41.9066781,44.8150104 39.61,42.735 L45.98,35.065 Z M96.89,39.03 L85.06,39.03 L82.98,48 L71.54,48 L84.41,5.75 L97.93,5.75 L110.8,48 L98.97,48 L96.89,39.03 Z M94.875,30.385 L94.16,27.46 C93.6399974,25.4233232 93.1200026,23.2133453 92.6,20.83 C92.0799974,18.4466547 91.5600026,16.1933439 91.04,14.07 L90.78,14.07 C90.303331,16.2366775 89.8158358,18.5008215 89.3175,20.8625 C88.8191642,23.2241785 88.3100026,25.4233232 87.79,27.46 L87.075,30.385 L94.875,30.385 Z M112.05,15.5 L123.23,15.5 L123.23,46.31 C123.23,48.1300091 123.035002,49.8741583 122.645,51.5425 C122.254998,53.2108417 121.572505,54.6949935 120.5975,55.995 C119.622495,57.2950065 118.322508,58.3241629 116.6975,59.0825 C115.072492,59.8408371 113.046679,60.22 110.62,60.22 C109.103326,60.22 107.890005,60.1333342 106.98,59.96 C106.069995,59.7866658 105.24667,59.5700013 104.51,59.31 L106.46,51.12 C106.936669,51.2500007 107.348332,51.3474997 107.695,51.4125 C108.041668,51.4775003 108.409998,51.51 108.8,51.51 C109.970006,51.51 110.804164,51.1525036 111.3025,50.4375 C111.800836,49.7224964 112.05,48.4766756 112.05,46.7 L112.05,15.5 Z M117.64,11.47 C115.819991,11.47 114.325006,10.9500052 113.155,9.91 C111.984994,8.8699948 111.4,7.5266749 111.4,5.88 C111.4,4.2333251 111.984994,2.8900052 113.155,1.85 C114.325006,0.8099948 115.819991,0.29 117.64,0.29 C119.460009,0.29 120.954994,0.8099948 122.125,1.85 C123.295006,2.8900052 123.88,4.2333251 123.88,5.88 C123.88,7.5266749 123.295006,8.8699948 122.125,9.91 C120.954994,10.9500052 119.460009,11.47 117.64,11.47 Z M127.08,31.75 C127.08,29.0633199 127.524162,26.658344 128.4125,24.535 C129.300838,22.411656 130.492493,20.6241739 131.9875,19.1725 C133.482507,17.7208261 135.20499,16.6158371 137.155,15.8575 C139.10501,15.0991629 141.11999,14.72 143.2,14.72 C145.28001,14.72 147.284157,15.0991629 149.2125,15.8575 C151.140843,16.6158371 152.852493,17.7208261 154.3475,19.1725 C155.842507,20.6241739 157.044995,22.411656 157.955,24.535 C158.865005,26.658344 159.32,29.0633199 159.32,31.75 C159.32,34.4366801 158.865005,36.841656 157.955,38.965 C157.044995,41.0883439 155.842507,42.8758261 154.3475,44.3275 C152.852493,45.7791739 151.140843,46.8841629 149.2125,47.6425 C147.284157,48.4008371 145.28001,48.78 143.2,48.78 C141.11999,48.78 139.10501,48.4008371 137.155,47.6425 C135.20499,46.8841629 133.482507,45.7791739 131.9875,44.3275 C130.492493,42.8758261 129.300838,41.0883439 128.4125,38.965 C127.524162,36.841656 127.08,34.4366801 127.08,31.75 Z M138.52,31.75 C138.52,34.2200124 138.877496,36.1808261 139.5925,37.6325 C140.307504,39.0841739 141.509992,39.81 143.2,39.81 C144.890008,39.81 146.092496,39.0841739 146.8075,37.6325 C147.522504,36.1808261 147.88,34.2200124 147.88,31.75 C147.88,29.2799877 147.522504,27.3191739 146.8075,25.8675 C146.092496,24.4158261 144.890008,23.69 143.2,23.69 C141.509992,23.69 140.307504,24.4158261 139.5925,25.8675 C138.877496,27.3191739 138.52,29.2799877 138.52,31.75 Z M163.17,2.76 L174.35,2.76 L174.35,13.29 L174.09,17.97 C175.216672,16.9299948 176.473326,16.1283361 177.86,15.565 C179.246674,15.0016638 180.654993,14.72 182.085,14.72 C183.991676,14.72 185.724992,15.1099961 187.285,15.89 C188.845008,16.6700039 190.177494,17.7749929 191.2825,19.205 C192.387506,20.6350071 193.24333,22.3683231 193.85,24.405 C194.45667,26.4416769 194.76,28.6949877 194.76,31.165 C194.76,33.9816807 194.380837,36.4841557 193.6225,38.6725 C192.864163,40.8608443 191.856673,42.7024925 190.6,44.1975 C189.343327,45.6925075 187.902508,46.8299961 186.2775,47.61 C184.652492,48.3900039 182.973342,48.78 181.24,48.78 C179.809993,48.78 178.401674,48.4225036 177.015,47.7075 C175.628326,46.9924964 174.306673,45.9200072 173.05,44.49 L172.79,44.49 L171.88,48 L163.17,48 L163.17,2.76 Z M174.35,38.12 C175.000003,38.7266697 175.671663,39.1383323 176.365,39.355 C177.058337,39.5716678 177.77333,39.68 178.51,39.68 C179.810007,39.68 180.936662,39.0733394 181.89,37.86 C182.843338,36.6466606 183.32,34.4800156 183.32,31.36 C183.32,28.6733199 182.940837,26.7450058 182.1825,25.575 C181.424163,24.4049942 180.286674,23.82 178.77,23.82 C177.903329,23.82 177.13417,23.9933316 176.4625,24.34 C175.79083,24.6866684 175.08667,25.293329 174.35,26.16 L174.35,38.12 Z M200.82,37.34 C203.766681,39.5066775 206.409988,40.59 208.75,40.59 C209.920006,40.59 210.754164,40.4275016 211.2525,40.1025 C211.750836,39.7774984 212,39.2900032 212,38.64 C212,38.2066645 211.826668,37.8275016 211.48,37.5025 C211.133332,37.1774984 210.667503,36.8741681 210.0825,36.5925 C209.497497,36.3108319 208.83667,36.0400013 208.1,35.78 C207.36333,35.5199987 206.583337,35.2166684 205.76,34.87 C204.806662,34.479998 203.842505,34.0141694 202.8675,33.4725 C201.892495,32.9308306 201.015004,32.2700039 200.235,31.49 C199.454996,30.7099961 198.815836,29.8108384 198.3175,28.7925 C197.819164,27.7741616 197.57,26.5933401 197.57,25.25 C197.57,23.6466587 197.884164,22.1950065 198.5125,20.895 C199.140836,19.5949935 200.018328,18.4900045 201.145,17.58 C202.271672,16.6699955 203.625825,15.9658358 205.2075,15.4675 C206.789175,14.9691642 208.533324,14.72 210.44,14.72 C213.12668,14.72 215.434157,15.1641622 217.3625,16.0525 C219.290843,16.9408378 220.969993,17.9266612 222.4,19.01 L217.46,25.64 C216.289994,24.773329 215.141672,24.1016691 214.015,23.625 C212.888328,23.148331 211.826672,22.91 210.83,22.91 C208.923324,22.91 207.97,23.5166606 207.97,24.73 C207.97,25.1633355 208.132498,25.5316651 208.4575,25.835 C208.782502,26.1383348 209.226664,26.4199987 209.79,26.68 C210.353336,26.9400013 211.00333,27.1891655 211.74,27.4275 C212.47667,27.6658345 213.256663,27.9366651 214.08,28.24 C215.033338,28.5866684 216.008328,29.0199974 217.005,29.54 C218.001672,30.0600026 218.900829,30.6991629 219.7025,31.4575 C220.504171,32.2158371 221.154164,33.125828 221.6525,34.1875 C222.150836,35.249172 222.4,36.5166593 222.4,37.99 C222.4,39.5066743 222.09667,40.9258267 221.49,42.2475 C220.88333,43.5691733 219.995006,44.7174951 218.825,45.6925 C217.654994,46.6675049 216.203342,47.4258306 214.47,47.9675 C212.736658,48.5091694 210.743345,48.78 208.49,48.78 C206.40999,48.78 204.210845,48.3683374 201.8925,47.545 C199.574155,46.7216626 197.570008,45.6166736 195.88,44.23 L200.82,37.34 Z" id="USAjobs" fill="#FFFFFF" sketch:type="MSShapeGroup"></path>
    </g>
</svg>