<?xml version="1.0" encoding="UTF-8" standalone="no"?>
<svg width="94px" height="50px" viewBox="0 0 94 50" version="1.1" xmlns="http://www.w3.org/2000/svg" xmlns:xlink="http://www.w3.org/1999/xlink" xmlns:sketch="http://www.bohemiancoding.com/sketch/ns">
    <title>Slice 1</title>
    <description>Created with Sketch (http://www.bohemiancoding.com/sketch)</description>
    <defs></defs>
    <g id="Page-1" stroke="none" stroke-width="1" fill="none" fill-rule="evenodd" sketch:type="MSPage">
        <g id="noun_116895_cc" sketch:type="MSLayerGroup" transform="translate(0.000000, 1.000000)" fill="#0071BC">
            <path d="M0.5,48.5 L93.5,48.5 L93.5,44.731 L0.5,44.731 L0.5,48.5 L0.5,48.5 Z M0.5,40.96 L93.5,40.96 L93.5,37.192 L0.5,37.192 L0.5,40.96 L0.5,40.96 Z M0.5,33.426 L93.5,33.426 L93.5,29.656 L0.5,29.656 L0.5,33.426 L0.5,33.426 Z M3.189,21.308 L3.427,22.156 L4.303,22.229 L3.569,22.716 L3.771,23.572 L3.082,23.023 L2.329,23.481 L2.636,22.656 L1.97,22.083 L2.848,22.118 L3.189,21.308 L3.189,21.308 Z M32.179,21.308 L32.417,22.156 L33.294,22.229 L32.559,22.716 L32.762,23.572 L32.072,23.023 L31.319,23.481 L31.626,22.656 L30.96,22.083 L31.839,22.118 L32.179,21.308 L32.179,21.308 Z M8.988,21.307 L9.224,22.156 L10.101,22.229 L9.368,22.716 L9.571,23.572 L8.878,23.023 L8.128,23.481 L8.434,22.656 L7.765,22.083 L8.648,22.118 L8.988,21.307 L8.988,21.307 Z M14.784,21.307 L15.021,22.156 L15.9,22.229 L15.165,22.716 L15.366,23.572 L14.678,23.023 L13.924,23.481 L14.231,22.656 L13.564,22.083 L14.445,22.118 L14.784,21.307 L14.784,21.307 Z M20.583,21.307 L20.82,22.156 L21.698,22.229 L20.965,22.716 L21.166,23.572 L20.475,23.023 L19.723,23.481 L20.029,22.656 L19.363,22.083 L20.242,22.118 L20.583,21.307 L20.583,21.307 Z M26.382,21.307 L26.619,22.156 L27.496,22.229 L26.763,22.716 L26.965,23.572 L26.274,23.023 L25.522,23.481 L25.827,22.656 L25.161,22.083 L26.041,22.118 L26.382,21.307 L26.382,21.307 Z M11.916,18.802 L12.152,19.649 L13.029,19.721 L12.296,20.207 L12.499,21.067 L11.807,20.519 L11.056,20.977 L11.363,20.15 L10.695,19.575 L11.574,19.612 L11.916,18.802 L11.916,18.802 Z M23.506,18.802 L23.743,19.649 L24.62,19.721 L23.886,20.207 L24.088,21.067 L23.399,20.519 L22.645,20.975 L22.951,20.15 L22.285,19.575 L23.164,19.612 L23.506,18.802 L23.506,18.802 Z M29.299,18.802 L29.537,19.649 L30.412,19.721 L29.681,20.207 L29.884,21.067 L29.194,20.519 L28.44,20.975 L28.747,20.15 L28.08,19.575 L28.959,19.612 L29.299,18.802 L29.299,18.802 Z M6.12,18.801 L6.358,19.649 L7.236,19.721 L6.501,20.207 L6.705,21.067 L6.014,20.52 L5.26,20.976 L5.567,20.151 L4.901,19.576 L5.78,19.613 L6.12,18.801 L6.12,18.801 Z M17.709,18.801 L17.947,19.649 L18.824,19.721 L18.091,20.207 L18.293,21.067 L17.604,20.519 L16.849,20.975 L17.156,20.15 L16.489,19.575 L17.371,19.612 L17.709,18.801 L17.709,18.801 Z M3.189,16.293 L3.427,17.143 L4.303,17.215 L3.569,17.702 L3.771,18.56 L3.082,18.012 L2.329,18.47 L2.636,17.644 L1.969,17.07 L2.848,17.107 L3.189,16.293 L3.189,16.293 Z M32.179,16.293 L32.417,17.143 L33.294,17.215 L32.561,17.702 L32.762,18.559 L32.072,18.012 L31.32,18.47 L31.626,17.644 L30.958,17.07 L31.839,17.107 L32.179,16.293 L32.179,16.293 Z M8.988,16.292 L9.224,17.143 L10.1,17.215 L9.368,17.702 L9.571,18.559 L8.878,18.012 L8.128,18.469 L8.434,17.643 L7.765,17.069 L8.648,17.106 L8.988,16.292 L8.988,16.292 Z M14.784,16.292 L15.021,17.143 L15.899,17.215 L15.165,17.702 L15.366,18.56 L14.678,18.012 L13.924,18.469 L14.231,17.643 L13.564,17.069 L14.445,17.106 L14.784,16.292 L14.784,16.292 Z M20.583,16.292 L20.82,17.143 L21.698,17.215 L20.965,17.702 L21.166,18.559 L20.475,18.012 L19.723,18.469 L20.029,17.643 L19.362,17.069 L20.242,17.106 L20.583,16.292 L20.583,16.292 Z M26.382,16.292 L26.619,17.143 L27.495,17.215 L26.763,17.702 L26.965,18.559 L26.274,18.012 L25.522,18.469 L25.827,17.643 L25.161,17.069 L26.041,17.106 L26.382,16.292 L26.382,16.292 Z M11.916,13.788 L12.152,14.638 L13.029,14.707 L12.296,15.195 L12.499,16.055 L11.807,15.506 L11.056,15.965 L11.363,15.137 L10.694,14.563 L11.574,14.6 L11.916,13.788 L11.916,13.788 Z M23.506,13.788 L23.743,14.638 L24.62,14.707 L23.886,15.195 L24.088,16.055 L23.399,15.506 L22.645,15.964 L22.951,15.137 L22.284,14.563 L23.164,14.6 L23.506,13.788 L23.506,13.788 Z M29.299,13.788 L29.537,14.638 L30.413,14.707 L29.681,15.195 L29.883,16.055 L29.194,15.506 L28.44,15.964 L28.747,15.137 L28.079,14.563 L28.959,14.6 L29.299,13.788 L29.299,13.788 Z M6.12,13.787 L6.358,14.638 L7.236,14.707 L6.501,15.195 L6.704,16.055 L6.014,15.506 L5.26,15.965 L5.567,15.138 L4.9,14.563 L5.78,14.6 L6.12,13.787 L6.12,13.787 Z M17.709,13.787 L17.947,14.638 L18.826,14.707 L18.091,15.195 L18.293,16.055 L17.604,15.506 L16.849,15.964 L17.156,15.137 L16.488,14.563 L17.371,14.6 L17.709,13.787 L17.709,13.787 Z M3.189,11.282 L3.427,12.131 L4.303,12.204 L3.569,12.69 L3.771,13.548 L3.082,12.998 L2.329,13.455 L2.636,12.631 L1.97,12.057 L2.848,12.095 L3.189,11.282 L3.189,11.282 Z M32.179,11.282 L32.417,12.131 L33.294,12.204 L32.559,12.69 L32.762,13.548 L32.072,12.998 L31.319,13.455 L31.626,12.631 L30.96,12.056 L31.839,12.094 L32.179,11.282 L32.179,11.282 Z M8.988,11.281 L9.224,12.131 L10.101,12.204 L9.368,12.69 L9.571,13.546 L8.878,12.998 L8.128,13.456 L8.434,12.631 L7.765,12.056 L8.648,12.094 L8.988,11.281 L8.988,11.281 Z M14.784,11.281 L15.021,12.131 L15.9,12.204 L15.165,12.69 L15.366,13.548 L14.678,12.998 L13.924,13.455 L14.231,12.631 L13.564,12.056 L14.445,12.094 L14.784,11.281 L14.784,11.281 Z M20.583,11.281 L20.82,12.131 L21.698,12.204 L20.965,12.69 L21.166,13.546 L20.475,12.998 L19.723,13.455 L20.029,12.631 L19.363,12.056 L20.242,12.094 L20.583,11.281 L20.583,11.281 Z M26.382,11.281 L26.619,12.131 L27.496,12.204 L26.763,12.69 L26.965,13.546 L26.274,12.998 L25.522,13.455 L25.827,12.631 L25.161,12.056 L26.041,12.094 L26.382,11.281 L26.382,11.281 Z M6.12,8.775 L6.358,9.624 L7.236,9.697 L6.501,10.184 L6.705,11.042 L6.014,10.492 L5.26,10.952 L5.567,10.127 L4.901,9.553 L5.78,9.59 L6.12,8.775 L6.12,8.775 Z M11.916,8.775 L12.152,9.624 L13.029,9.697 L12.296,10.184 L12.499,11.042 L11.807,10.492 L11.056,10.951 L11.363,10.126 L10.695,9.552 L11.574,9.589 L11.916,8.775 L11.916,8.775 Z M17.709,8.775 L17.947,9.624 L18.824,9.697 L18.091,10.184 L18.293,11.042 L17.604,10.492 L16.849,10.951 L17.156,10.126 L16.489,9.552 L17.371,9.589 L17.709,8.775 L17.709,8.775 Z M23.506,8.775 L23.743,9.624 L24.62,9.697 L23.886,10.184 L24.088,11.042 L23.399,10.492 L22.645,10.951 L22.951,10.126 L22.285,9.552 L23.164,9.589 L23.506,8.775 L23.506,8.775 Z M29.299,8.775 L29.537,9.624 L30.412,9.697 L29.681,10.184 L29.884,11.042 L29.194,10.492 L28.44,10.951 L28.747,10.126 L28.08,9.552 L28.959,9.589 L29.299,8.775 L29.299,8.775 Z M3.189,6.27 L3.427,7.118 L4.303,7.191 L3.569,7.679 L3.771,8.536 L3.082,7.988 L2.329,8.444 L2.636,7.619 L1.97,7.045 L2.848,7.081 L3.189,6.27 L3.189,6.27 Z M32.179,6.27 L32.417,7.118 L33.293,7.191 L32.559,7.679 L32.762,8.536 L32.072,7.988 L31.319,8.444 L31.626,7.619 L30.96,7.045 L31.839,7.081 L32.179,6.27 L32.179,6.27 Z M8.988,6.269 L9.224,7.118 L10.1,7.19 L9.368,7.678 L9.571,8.534 L8.878,7.987 L8.128,8.443 L8.434,7.618 L7.765,7.044 L8.648,7.08 L8.988,6.269 L8.988,6.269 Z M14.784,6.269 L15.021,7.118 L15.899,7.191 L15.165,7.679 L15.366,8.536 L14.678,7.988 L13.924,8.444 L14.231,7.619 L13.564,7.045 L14.445,7.081 L14.784,6.269 L14.784,6.269 Z M20.583,6.269 L20.82,7.118 L21.698,7.191 L20.965,7.679 L21.166,8.535 L20.475,7.988 L19.723,8.444 L20.029,7.619 L19.363,7.045 L20.242,7.081 L20.583,6.269 L20.583,6.269 Z M26.382,6.269 L26.619,7.118 L27.495,7.191 L26.763,7.679 L26.965,8.535 L26.274,7.988 L25.522,8.444 L25.827,7.619 L25.161,7.045 L26.041,7.081 L26.382,6.269 L26.382,6.269 Z M11.916,3.764 L12.152,4.612 L13.029,4.685 L12.296,5.17 L12.499,6.03 L11.807,5.481 L11.056,5.939 L11.363,5.113 L10.694,4.538 L11.574,4.576 L11.916,3.764 L11.916,3.764 Z M23.506,3.764 L23.743,4.612 L24.62,4.685 L23.886,5.17 L24.088,6.03 L23.399,5.481 L22.645,5.939 L22.951,5.113 L22.284,4.538 L23.164,4.576 L23.506,3.764 L23.506,3.764 Z M29.299,3.764 L29.537,4.612 L30.412,4.685 L29.681,5.17 L29.883,6.03 L29.194,5.481 L28.44,5.939 L28.747,5.113 L28.079,4.538 L28.959,4.576 L29.299,3.764 L29.299,3.764 Z M6.12,3.763 L6.358,4.612 L7.236,4.685 L6.501,5.17 L6.704,6.03 L6.014,5.481 L5.26,5.939 L5.567,5.113 L4.9,4.538 L5.78,4.576 L6.12,3.763 L6.12,3.763 Z M17.709,3.763 L17.947,4.612 L18.824,4.685 L18.091,5.17 L18.293,6.03 L17.604,5.481 L16.849,5.939 L17.156,5.113 L16.488,4.538 L17.371,4.576 L17.709,3.763 L17.709,3.763 Z M3.189,1.259 L3.427,2.106 L4.303,2.179 L3.569,2.664 L3.771,3.524 L3.082,2.974 L2.329,3.434 L2.636,2.607 L1.97,2.033 L2.848,2.069 L3.189,1.259 L3.189,1.259 Z M32.179,1.259 L32.417,2.106 L33.294,2.179 L32.559,2.664 L32.762,3.524 L32.072,2.974 L31.319,3.434 L31.626,2.607 L30.96,2.033 L31.839,2.069 L32.179,1.259 L32.179,1.259 Z M8.988,1.258 L9.224,2.106 L10.1,2.179 L9.368,2.664 L9.57,3.523 L8.878,2.974 L8.125,3.434 L8.434,2.607 L7.765,2.033 L8.648,2.069 L8.988,1.258 L8.988,1.258 Z M14.784,1.258 L15.021,2.106 L15.9,2.179 L15.165,2.664 L15.366,3.524 L14.678,2.974 L13.924,3.434 L14.231,2.607 L13.564,2.033 L14.445,2.069 L14.784,1.258 L14.784,1.258 Z M20.583,1.258 L20.82,2.106 L21.698,2.179 L20.965,2.664 L21.166,3.524 L20.475,2.974 L19.723,3.434 L20.029,2.607 L19.363,2.033 L20.242,2.069 L20.583,1.258 L20.583,1.258 Z M26.382,1.258 L26.619,2.106 L27.496,2.179 L26.763,2.664 L26.965,3.524 L26.274,2.974 L25.522,3.434 L25.827,2.607 L25.161,2.033 L26.041,2.069 L26.382,1.258 L26.382,1.258 Z M0.5,-0.5 L0.5,25.885 L34.716,25.885 L93.5,25.885 L93.5,22.115 L34.716,22.115 L34.716,18.344 L93.5,18.344 L93.5,14.574 L34.716,14.574 L34.716,10.806 L93.5,10.806 L93.5,7.036 L34.716,7.036 L34.716,3.266 L93.5,3.266 L93.5,-0.5 L0.5,-0.5 L0.5,-0.5 Z" id="Shape" sketch:type="MSShapeGroup"></path>
        </g>
    </g>
</svg>